Coordinates
version=1
nRows=21
nColumns=33
inDegrees=yes

Units are S.I. units (second, meters, Newtons, ...)
Angles are in degrees.

endheader
time	ground_thorax_rot_x	ground_thorax_rot_y	ground_thorax_rot_z	ground_thorax_tx	ground_thorax_ty	ground_thorax_tz	clav_prot_r	clav_elev_r	scapula_abduction_r	scapula_elevation_r	scapula_upward_rot_r	scapula_winging_r	shoulder_elv_r	plane_of_elev_r	axial_rot_r	elbow_flexion_r	pro_sup_r	wrist_flex_r	wrist_dev_r	clav_prot_l	clav_elev_l	scapula_abduction_l	scapula_elevation_l	scapula_upward_rot_l	scapula_winging_l	shoulder_elv_l	plane_of_elev_l	axial_rot_l	elbow_flexion_l	pro_sup_l	wrist_flex_l	wrist_dev_l
      4.69000000	     36.20997934	     19.27595311	     22.05944576	   -237.74017859	    835.26124357	      7.98464297	     12.17141452	     38.51979386	     37.59805584	     45.00000000	    -36.18839574	  -1891.29202570	  -2090.77824464	     33.22410990	     54.03520386	   1454.78563850	     41.69602349	     17.59199604	      2.27340297	      8.37109471	    -45.00000000	    -36.84030844	     45.00000000	    -45.00000000	   1541.08062763	  -3690.59688564	    138.76139160	    148.66062014	   -708.80590851	     18.22812245	      3.00162308	    -20.11281031
      4.70000000	     36.21667951	     19.11467544	     21.84079213	   -239.13702815	    835.28700079	      8.09562604	     12.18249825	     38.37564760	     37.49522892	     45.00000000	    -36.53459808	  -1891.24890128	  -2090.76426927	     33.38221690	     54.11564294	   1454.81658060	     43.40069686	     17.34032271	      2.11691660	      8.41444807	    -45.00000000	    -36.85342898	     45.00000000	    -45.00000000	   1541.17272925	  -3690.62119071	    138.72990300	    148.69398710	   -708.79283821	     19.07400049	      2.79730229	    -20.02245709
      4.71000000	     36.19807016	     19.09968289	     21.85585184	   -240.47072942	    835.28859210	      8.20343306	     12.14087788	     38.37881135	     37.51599552	     45.00000000	    -36.65674634	  -1891.25270761	  -2090.72765613	     33.19305428	     53.91536300	   1454.99970609	     44.93801941	     17.16406549	      1.99889943	      8.36935152	    -45.00000000	    -36.84059952	     45.00000000	    -45.00000000	   1541.26017837	  -3690.68181965	    138.86993049	    148.46309981	   -708.73801013	     19.89153480	      2.65018553	    -19.96842483
      4.72000000	     36.22008127	     18.90535230	     21.60334839	   -241.74338281	    835.26910691	      8.30758141	     12.11106202	     38.30307406	     37.34179447	     45.00000000	    -36.77115528	  -1891.23193537	  -2090.72271584	     33.34908013	     54.14266623	   1455.11440814	     46.54166304	     16.94053639	      1.87906894	      8.40354751	    -45.00000000	    -36.77866674	     45.00000000	    -45.00000000	   1541.32809872	  -3690.65595461	    138.79857577	    148.48342348	   -708.72356859	     20.70230976	      2.47165754	    -19.87583219
      4.73000000	     36.18876980	     18.86478902	     21.58657766	   -242.96110652	    835.23039597	      8.40759815	     12.11867811	     38.22254357	     37.31115653	     45.00000000	    -37.02850939	  -1891.23936598	  -2090.73279129	     33.32575970	     54.06928758	   1455.22946291	     48.12632235	     16.71414390	      1.77753269	      8.40705307	    -45.00000000	    -36.75516754	     45.00000000	    -45.00000000	   1541.42907218	  -3690.69193280	    138.86904655	    148.36295841	   -708.71138306	     21.54625675	      2.31809112	    -19.79574147
      4.74000000	     36.20546726	     18.74466047	     21.44525695	   -244.12818890	    835.17360151	      8.50252465	     12.08996367	     38.17628307	     37.19662816	     45.00000000	    -37.14400349	  -1891.22549517	  -2090.71656656	     33.35215667	     54.19999012	   1455.37700729	     49.70696282	     16.51754764	      1.70257707	      8.41499842	    -45.00000000	    -36.70818750	     45.00000000	    -45.00000000	   1541.49805746	  -3690.71884093	    138.87727030	    148.29532324	   -708.63759358	     22.38172125	      2.15429951	    -19.71732561
      4.75000000	     36.15047710	     18.71155902	     21.44901826	   -245.25182043	    835.09894882	      8.59163046	     12.11188117	     38.10464693	     37.16639941	     45.00000000	    -37.50276194	  -1891.19836967	  -2090.73056502	     33.35920910	     54.25940180	   1455.48725971	     51.38315394	     16.29390607	      1.63728517	      8.44718268	    -45.00000000	    -36.68959044	     45.00000000	    -45.00000000	   1541.57883864	  -3690.71707253	    138.92135401	    148.21084906	   -708.66390313	     23.28579521	      1.99198802	    -19.61439891
      4.76000000	     36.22894345	     18.50849916	     21.19816159	   -246.32932943	    835.00664689	      8.67343347	     11.97710421	     38.13634179	     37.07523683	     45.00000000	    -37.15000220	  -1891.12677479	  -2090.83068020	     33.13306499	     54.32866070	   1455.58299458	     52.73872591	     16.10834679	      1.60108850	      8.33357448	    -45.00000000	    -36.76344040	     45.00000000	    -45.00000000	   1541.54885863	  -3690.86375973	    139.01825692	    147.91545375	   -708.61684988	     24.05756102	      1.92941596	    -19.57527709
      4.77000000	     36.27657495	     18.33451959	     20.95136746	   -247.37429130	    834.89503815	      8.74804710	     11.99105057	     38.03401852	     36.80968943	     45.00000000	    -37.16139725	  -1891.14143727	  -2090.83574538	     33.37162638	     54.77019147	   1455.65573102	     53.97670793	     15.93708609	      1.58043750	      8.32668870	    -45.00000000	    -36.67064652	     45.00000000	    -45.00000000	   1541.57448347	  -3690.82943170	    138.91555482	    147.91426023	   -708.57491203	     24.71338630	      1.76927747	    -19.47457502
      4.78000000	     36.23295657	     18.32128589	     21.05701316	   -248.37877675	    834.76394710	      8.81413407	     11.90735412	     38.13185528	     36.91102959	     45.00000000	    -37.26764374	  -1891.11188715	  -2090.86350983	     33.03962326	     54.96624509	   1455.85814425	     55.15765968	     15.76988125	      1.53016129	      8.32421337	    -45.00000000	    -36.62893250	     45.00000000	    -45.00000000	   1541.65720475	  -3690.84965727	    139.03576051	    147.80096773	   -708.54078153	     25.38486103	      1.70000828	    -19.42588104
      4.79000000	     35.99218511	     18.54012890	     21.56003632	   -249.34991181	    834.61194903	      8.87180692	     12.38616116	     37.72200781	     37.07237989	     45.00000000	    -39.51046280	  -1891.24457695	  -2090.74201837	     33.70269188	     54.50745664	   1456.11003456	     58.38838938	     15.22967284	      1.37553948	      8.76179319	    -45.00000000	    -36.74339575	     45.00000000	    -45.00000000	   1542.03339656	  -3690.88341920	    139.10869828	    147.67711442	   -708.45954885	     27.16931587	      1.50541418	    -19.32650634
      4.80000000	     36.05339336	     18.40744381	     21.39157124	   -250.28623292	    834.43885107	      8.92077221	     12.12864156	     37.83315747	     36.94667421	     45.00000000	    -39.00198416	  -1891.16980223	  -2090.79059662	     33.38633604	     54.83515146	   1456.31705361	     60.45467839	     15.18619684	      1.45736945	      8.48609633	    -45.00000000	    -36.68301968	     45.00000000	    -45.00000000	   1541.95957480	  -3690.87963262	    139.19808124	    147.68869106	   -708.35845281	     28.23428753	      1.18669216	    -19.12269086
      4.81000000	     36.10744928	     18.20519397	     21.27779789	   -251.19305759	    834.24425432	      8.96128796	     11.93501450	     37.95155596	     36.80030512	     45.00000000	    -38.34649175	  -1890.94914450	  -2090.83497310	     32.94350641	     55.23519686	   1456.54656593	     62.00738532	     15.10913632	      1.52234469	      8.37577523	    -45.00000000	    -36.57149543	     45.00000000	    -45.00000000	   1541.90662218	  -3690.92274177	    139.26913232	    147.50363707	   -708.27479758	     29.08348827	      1.05829440	    -19.04086570
      4.82000000	     36.15650388	     18.06239973	     21.08069941	   -252.07004082	    834.03011073	      8.99318970	     11.92290483	     37.87587120	     36.64525072	     45.00000000	    -38.13302754	  -1891.04099628	  -2091.02927977	     32.94291447	     55.73355077	   1456.63844108	     63.41694961	     14.85177991	      1.50977149	      8.37755078	    -45.00000000	    -36.57416170	     45.00000000	    -45.00000000	   1541.93393008	  -3690.91800734	    139.18943603	    147.32207503	   -708.21708126	     29.87933902	      1.00922748	    -18.99610141
      4.83000000	     36.14051540	     18.04580549	     21.28161863	   -252.92418179	    833.79771476	      9.01646768	     11.94904261	     37.85966697	     36.69221539	     45.00000000	    -38.51276832	  -1891.09882216	  -2091.02763890	     32.94929074	     56.07985082	   1456.74500466	     65.01028896	     14.62942697	      1.52974820	      8.40537595	    -45.00000000	    -36.54019254	     45.00000000	    -45.00000000	   1542.06090801	  -3691.02415685	    139.33860378	    147.23660944	   -708.16252593	     30.78230008	      0.86105872	    -18.88306071
      4.84000000	     36.12053130	     17.93859783	     21.30036761	   -253.75698947	    833.55073798	      9.03053690	     11.91278006	     37.86442551	     36.60597321	     45.00000000	    -38.56784396	  -1891.02584896	  -2091.06093373	     32.86161174	     56.37865382	   1456.91953421	     66.60440361	     14.49901802	      1.57124074	      8.39815811	    -45.00000000	    -36.50016853	     45.00000000	    -45.00000000	   1542.09572066	  -3691.02675545	    139.40518372	    147.06876347	   -708.21266537	     31.72784653	      0.73191963	    -18.74833650
      4.85000000	     36.17551926	     17.76389088	     21.03860756	   -254.57400125	    833.29221805	      9.03464995	     11.87739249	     37.84333860	     36.33354350	     45.00000000	    -38.23114943	  -1890.94927460	  -2091.19620948	     32.74734147	     56.76547577	   1457.07273742	     67.98481756	     14.39910856	      1.62405173	      8.35898448	    -45.00000000	    -36.48454648	     45.00000000	    -45.00000000	   1542.03179417	  -3690.95074218	    139.29571824	    146.83646138	   -708.14597610	     32.58114024	      0.65141023	    -18.68088171
      4.86000000	     35.97696024	     18.05320260	     21.74583055	   -255.38114547	    833.02551015	      9.02794965	     12.41246113	     37.34365162	     36.63912796	     45.00000000	    -40.94745425	  -1891.15634999	  -2091.01225354	     33.51069668	     56.00296902	   1457.28559836	     71.41724270	     13.79414401	      1.63946324	      8.76639315	    -45.00000000	    -36.52710890	     45.00000000	    -45.00000000	   1542.47860495	  -3691.07170209	    139.37566280	    146.55723899	   -708.06070982	     34.75666785	      0.46606221	    -18.53512308
      4.87000000	     36.09707259	     17.82526295	     21.61458543	   -256.17877166	    832.75444519	      9.00940624	     12.05435305	     37.60123528	     36.48470143	     45.00000000	    -40.10037848	  -1891.05435443	  -2091.06294072	     33.13629312	     56.62912990	   1457.44653564	     73.25709912	     13.86206108	      1.73418589	      8.46628181	    -45.00000000	    -36.41056038	     45.00000000	    -45.00000000	   1542.38834178	  -3691.11473621	    139.51076295	    146.64371132	   -707.88076406	     35.93717646	      0.19458294	    -18.30290847
      4.88000000	     36.18563758	     17.60305456	     21.42347186	   -256.96904461	    832.48256170	      8.97866928	     11.90786990	     37.73316210	     36.31052134	     45.00000000	    -39.32884850	  -1890.81238052	  -2091.07490683	     32.65846596	     57.16054638	   1457.66558081	     74.61172827	     13.88299746	      1.81123365	      8.40180781	    -45.00000000	    -36.35420363	     45.00000000	    -45.00000000	   1542.32428095	  -3691.08442727	    139.55742552	    146.34190060	   -707.76178754	     36.91609586	      0.11156073	    -18.23246305
      4.89000000	     36.26805447	     17.46146182	     21.27928606	   -257.75270551	    832.21273359	      8.93547720	     11.90905080	     37.67426654	     36.16208829	     45.00000000	    -39.18071548	  -1890.93576907	  -2091.30837135	     32.73471006	     57.70707220	   1457.73390281	     75.82867527	     13.69423621	      1.84486195	      8.39583414	    -45.00000000	    -36.35401073	     45.00000000	    -45.00000000	   1542.33450771	  -3691.12349094	    139.49214414	    146.12300375	   -707.66938229	     37.85092182	      0.04810088	    -18.16757909
